<svg width="60" height="60" viewBox="0 0 60 60" fill="none" xmlns="http://www.w3.org/2000/svg">
<rect width="60" height="60" rx="6" fill="#2E62A3"/>
<path d="M48 10C48 8.34315 49.3431 7 51 7V7C52.6569 7 54 8.34315 54 10V10C54 11.6569 52.6569 13 51 13H48V10Z" fill="white"/>
<path d="M48 10C48 8.34315 49.3431 7 51 7V7C52.6569 7 54 8.34315 54 10V10C54 11.6569 52.6569 13 51 13H48V10Z" fill="white"/>
<path d="M48 10C48 8.34315 49.3431 7 51 7V7C52.6569 7 54 8.34315 54 10V10C54 11.6569 52.6569 13 51 13H48V10Z" fill="#67E939"/>
<path d="M7 10C7 8.34315 8.34315 7 10 7H35C36.6569 7 38 8.34315 38 10V10C38 11.6569 36.6569 13 35 13H7V10Z" fill="white"/>
<path d="M7 10C7 8.34315 8.34315 7 10 7H35C36.6569 7 38 8.34315 38 10V10C38 11.6569 36.6569 13 35 13H7V10Z" fill="white"/>
<path d="M7 10C7 8.34315 8.34315 7 10 7H35C36.6569 7 38 8.34315 38 10V10C38 11.6569 36.6569 13 35 13H7V10Z" fill="white"/>
<rect x="7" y="13" width="6" height="33" fill="white"/>
<rect x="7" y="13" width="6" height="33" fill="white"/>
<rect x="7" y="13" width="6" height="33" fill="white"/>
<path d="M7 46H28V52H10C8.34315 52 7 50.6569 7 49V46Z" fill="white"/>
<path d="M7 46H28V52H10C8.34315 52 7 50.6569 7 49V46Z" fill="white"/>
<path d="M7 46H28V52H10C8.34315 52 7 50.6569 7 49V46Z" fill="white"/>
<path d="M33 25C33 23.3431 34.3431 22 36 22H51C52.6569 22 54 23.3431 54 25V25C54 26.6569 52.6569 28 51 28H33V25Z" fill="white"/>
<path d="M33 25C33 23.3431 34.3431 22 36 22H51C52.6569 22 54 23.3431 54 25V25C54 26.6569 52.6569 28 51 28H33V25Z" fill="white"/>
<path d="M33 25C33 23.3431 34.3431 22 36 22H51C52.6569 22 54 23.3431 54 25V25C54 26.6569 52.6569 28 51 28H33V25Z" fill="white"/>
<rect x="33" y="28" width="6" height="18" fill="white"/>
<rect x="33" y="28" width="6" height="18" fill="white"/>
<rect x="33" y="28" width="6" height="18" fill="white"/>
<path d="M33 46H51C52.6569 46 54 47.3431 54 49V49C54 50.6569 52.6569 52 51 52H33V46Z" fill="white"/>
<path d="M33 46H51C52.6569 46 54 47.3431 54 49V49C54 50.6569 52.6569 52 51 52H33V46Z" fill="white"/>
<path d="M33 46H51C52.6569 46 54 47.3431 54 49V49C54 50.6569 52.6569 52 51 52H33V46Z" fill="white"/>
</svg>
